<svg width="14" height="12" viewBox="0 0 14 12" fill="none" xmlns="http://www.w3.org/2000/svg">
<g clip-path="url(#clip0_1_65)">
<path d="M13.1159 3.53407C12.964 3.41306 12.7497 3.38756 12.57 3.46917L9.82114 4.71792L7.24187 1.94288C7.14648 1.84022 7.00801 1.78125 6.86238 1.78125C6.71676 1.78125 6.57831 1.84022 6.48289 1.94288L3.90362 4.7179L1.15476 3.46915C0.9751 3.38756 0.760755 3.41304 0.6088 3.53405C0.456844 3.65505 0.396162 3.8486 0.454257 4.02696L2.36312 9.88634C2.42744 10.0838 2.62257 10.2188 2.84373 10.2188H10.881C11.1022 10.2188 11.2973 10.0838 11.3616 9.88636L13.2705 4.02698C13.3286 3.84862 13.2679 3.65508 13.1159 3.53407Z" fill="#F5CA48"/>
</g>
<defs>
<clipPath id="clip0_1_65">
<rect width="12.8597" height="12" fill="white" transform="translate(0.432831)"/>
</clipPath>
</defs>
</svg>
