<svg width="28" height="29" viewBox="0 0 28 29" fill="none" xmlns="http://www.w3.org/2000/svg">
<g id="Profit">
<path id="Vector" d="M3.98096 17.1669V22.3071C3.98096 23.4431 4.42324 24.5327 5.21052 25.336C5.9978 26.1393 7.06557 26.5906 8.17895 26.5906H19.9333C21.0467 26.5906 22.1145 26.1393 22.9018 25.336C23.689 24.5327 24.1313 23.4431 24.1313 22.3071V17.1669C24.1313 16.0308 23.689 14.9413 22.9018 14.1379C22.1145 13.3346 21.0467 12.8833 19.9333 12.8833H8.17895C7.06557 12.8833 5.9978 13.3346 5.21052 14.1379C4.42324 14.9413 3.98096 16.0308 3.98096 17.1669ZM22.4521 17.1669V22.3071C22.4521 22.9887 22.1867 23.6424 21.7144 24.1244C21.242 24.6064 20.6013 24.8772 19.9333 24.8772H8.17895C7.51092 24.8772 6.87026 24.6064 6.39789 24.1244C5.92553 23.6424 5.66015 22.9887 5.66015 22.3071V17.1669C5.66015 16.4852 5.92553 15.8315 6.39789 15.3495C6.87026 14.8675 7.51092 14.5967 8.17895 14.5967H19.9333C20.6013 14.5967 21.242 14.8675 21.7144 15.3495C22.1867 15.8315 22.4521 16.4852 22.4521 17.1669Z" fill="#2E2E2E"/>
<path id="Vector_2" d="M14.0564 23.1636C14.7206 23.1636 15.37 22.9627 15.9222 22.5861C16.4745 22.2096 16.905 21.6744 17.1592 21.0482C17.4134 20.422 17.4799 19.733 17.3503 19.0683C17.2207 18.4036 16.9008 17.793 16.4312 17.3137C15.9615 16.8345 15.3631 16.5081 14.7116 16.3759C14.0601 16.2436 13.3849 16.3115 12.7712 16.5709C12.1576 16.8302 11.633 17.2695 11.264 17.833C10.895 18.3965 10.698 19.0591 10.698 19.7368C10.698 20.6457 11.0519 21.5173 11.6817 22.1599C12.3115 22.8026 13.1657 23.1636 14.0564 23.1636ZM14.0564 18.0234C14.3885 18.0234 14.7132 18.1239 14.9893 18.3122C15.2655 18.5005 15.4807 18.768 15.6078 19.0811C15.7349 19.3942 15.7681 19.7387 15.7034 20.0711C15.6386 20.4035 15.4786 20.7088 15.2438 20.9484C15.009 21.188 14.7097 21.3512 14.384 21.4173C14.0583 21.4834 13.7207 21.4495 13.4138 21.3198C13.107 21.1901 12.8447 20.9705 12.6602 20.6887C12.4757 20.407 12.3772 20.0757 12.3772 19.7368C12.3772 19.2824 12.5541 18.8466 12.8691 18.5253C13.184 18.2039 13.6111 18.0234 14.0564 18.0234ZM14.6525 2.8512C14.5745 2.7709 14.4816 2.70717 14.3793 2.66367C14.277 2.62018 14.1673 2.59779 14.0564 2.59779C13.9456 2.59779 13.8358 2.62018 13.7335 2.66367C13.6312 2.70717 13.5384 2.7709 13.4603 2.8512L9.90041 6.49219C9.73786 6.65237 9.64432 6.87189 9.64039 7.10244C9.63645 7.33299 9.72243 7.55569 9.87942 7.72156C10.0364 7.88742 10.2515 7.98286 10.4775 7.98688C10.7034 7.99089 10.9217 7.90316 11.0842 7.74297L13.2168 5.52411V10.3131C13.2168 10.5403 13.3053 10.7582 13.4627 10.9189C13.6202 11.0795 13.8337 11.1698 14.0564 11.1698C14.2791 11.1698 14.4927 11.0795 14.6501 10.9189C14.8076 10.7582 14.896 10.5403 14.896 10.3131V5.52411L17.0286 7.74297C17.185 7.90125 17.3961 7.99047 17.6163 7.99142C17.7338 7.99794 17.8513 7.97919 17.9612 7.93639C18.0712 7.89359 18.1711 7.8277 18.2544 7.74297C18.4108 7.58246 18.4986 7.36533 18.4986 7.139C18.4986 6.91267 18.4108 6.69554 18.2544 6.53502L14.6525 2.8512Z" fill="#2E2E2E"/>
</g>
</svg>
